<svg xmlns="http://www.w3.org/2000/svg" viewBox="0 0 512 512" xml:space="preserve"><path fill="#FFDF00" d="M277 513H1.033606V1.09606h511.807886V513H277m-9.348969-124.346924c1.462494.778015 3.013093 1.42688 4.373505 2.354584 10.553375 7.196625 14.653839 17.334656 12.963165 29.779297-1.373169 10.107452-7.680572 16.3815-17.004608 19.614685-11.593841 4.020172-23.228225 3.475006-34.619079-.915894-7.780732-2.999267-12.917481-8.62204-14.976105-16.782074-.595062-2.358734-.687271-4.844299-1.001938-7.21109h-35.433258c-.617615 23.905274 11.777847 43.261719 33.809982 52.440796 18.645462 7.768128 37.963929 8.568543 57.56778 4.332092 15.300995-3.30661 28.177337-10.641876 37.580841-23.39862 18.372009-24.923126 16.130249-77.076355-30.677399-93.777069-12.888916-4.598725-26.340378-7.598725-39.336517-11.924774-16.124374-5.36731-21.120255-19.712952-18.33107-34.261841 2.299713-11.995636 11.470535-16.529877 22.56517-18.576386 19.893128-3.669433 34.464142 6.220795 37.348267 25.907532h35.229309c1.847229-21.779083-12.656036-43.590057-34.530274-52.12619-16.275024-6.351105-33.182891-6.924164-49.982696-3.67807-18.997894 3.670807-34.410324 13.338623-42.282013 31.907196-12.401047 29.252929-3.852997 70.183258 37.06601 84.491394 12.775253 4.467132 25.998001 7.654541 39.670928 11.824432m73.524933-70.865143c-.012451 15.825745-.137298 31.652375-.00827 47.47696.15332 18.806579-.314636 37.671142 1.017578 56.401641 1.612183 22.667542 13.973816 38.536194 34.937683 47.322602 13.789521 5.779541 28.318909 6.720733 43.008332 4.915527 19.247314-2.365326 35.09201-10.745087 45.657409-27.487244 6.477845-10.264923 9.360962-21.599762 8.987305-33.965087h-35.611603c-.248077 1.40863-.493133 2.689117-.697296 3.976104-2.703522 17.042786-8.666077 23.657654-25.531738 26.196778-12.163727 1.831237-26.931397-1.7547-32.160492-14.401917-2.152924-5.207153-3.380615-11.1698-3.442444-16.806213-.32901-29.982239-.204315-59.970185-.092682-89.955628.014099-3.782501.415558-7.689148 1.422638-11.320556 4.304413-15.521424 16.212158-20.105744 30.602997-19.826966 15.593536.302063 24.927612 7.382721 28.215637 20.372132.835053 3.298919 1.119904 6.737121 1.624878 9.906097h35.923218c-.440613-22.895019-8.994354-40.814178-28.877503-52.587616-15.141571-8.965851-31.757171-10.535614-48.637573-8.751587-19.448913 2.055512-35.958404 10.193817-47.168335 27.012268-6.153046 9.231507-8.144409 19.776245-9.169739 31.522705m72.003907-103.121719c-1.188569 1.766785-2.377137 3.533554-3.57251 5.310455-6.193451-5.910949-11.463928-10.320129-15.964478-15.410125-4.540374-5.135056-9.574585-7.227585-16.462066-6.713166-7.984803.59639-16.048371.138916-25.245728.138916 13.419769 13.638382 25.839081 26.345169 38.41684 38.893128 1.095886 1.093307 3.227173 1.573318 4.890381 1.602325 8.814453.153778 17.636779.207657 26.447235-.035217 1.898498-.052353 4.198761-1.014557 5.563598-2.333893 6.934784-6.703491 13.643311-13.642166 20.390442-20.538223 5.478424-5.599381 10.899353-11.255036 17.02478-17.587692-11.509735 0-21.801361-.08989-32.088043.094451-1.589569.028489-3.483001.965394-4.67688 2.080613-4.860107 4.540054-9.502624 9.313034-14.723571 14.498428z"/><path fill="#010100" d="M267.323517 388.454712c-13.345413-3.971527-26.568161-7.158936-39.343414-11.626068-40.919007-14.308136-49.467057-55.238465-37.06601-84.491394 7.871689-18.568573 23.284119-28.236389 42.282013-31.907196 16.799805-3.246094 33.707672-2.673035 49.982696 3.67807 21.874238 8.536133 36.377503 30.347107 34.530274 52.12619h-35.229309c-2.884125-19.686737-17.455139-29.576965-37.348267-25.907532-11.094635 2.046509-20.265457 6.58075-22.56517 18.576386-2.789185 14.548889 2.206696 28.894531 18.33107 34.261841 12.996139 4.326049 26.447601 7.326049 39.336517 11.924774 46.807648 16.700714 49.049408 68.853943 30.677399 93.777069-9.403504 12.756744-22.279846 20.09201-37.580841 23.39862-19.603851 4.236451-38.922318 3.436036-57.56778-4.332092-22.032135-9.179077-34.427597-28.535522-33.809982-52.440796h35.433258c.314667 2.366791.406876 4.852356 1.001938 7.21109 2.058624 8.160034 7.195373 13.782807 14.976105 16.782074 11.390854 4.3909 23.025238 4.936066 34.619079.915894 9.324036-3.233185 15.631439-9.507233 17.004608-19.614685 1.690674-12.444641-2.40979-22.582672-12.963165-29.779297-1.360412-.927704-2.911011-1.576569-4.701019-2.552948z"/><path fill="#020200" d="M341.196991 317.320282c1.004303-11.278809 2.995666-21.823547 9.148712-31.055054 11.209931-16.818451 27.719422-24.956756 47.168335-27.012268 16.880402-1.784027 33.496002-.214264 48.637573 8.751587 19.883149 11.773438 28.43689 29.692597 28.877503 52.587616h-35.923218c-.504974-3.168976-.789825-6.607178-1.624878-9.906097-3.288025-12.989411-12.622101-20.070069-28.215637-20.372132-14.390839-.278778-26.298584 4.305542-30.602997 19.826966-1.00708 3.631408-1.408539 7.538055-1.422638 11.320556-.111633 29.985443-.236328 59.973389.092682 89.955628.061829 5.636413 1.28952 11.59906 3.442444 16.806213 5.229095 12.647217 19.996765 16.233154 32.160492 14.401917 16.865661-2.539124 22.828216-9.153992 25.531738-26.196778.204163-1.286987.449219-2.567474.697296-3.976104h35.611603c.373657 12.365325-2.50946 23.700164-8.987305 33.965087-10.565399 16.742157-26.410095 25.121918-45.657409 27.487244-14.689423 1.805206-29.218811.864014-43.008332-4.915527-20.963867-8.786408-33.3255-24.65506-34.937683-47.322602-1.332214-18.730499-.864258-37.595062-1.017578-56.401641-.129028-15.824585-.004181-31.651215.029297-47.944611z"/><path fill="#040400" d="M413.428955 214.417084c4.971863-4.936264 9.61438-9.709244 14.474487-14.249298 1.193879-1.115219 3.087311-2.052124 4.67688-2.080613 10.286682-.184341 20.578308-.094451 32.088043-.094451-6.125427 6.332656-11.546356 11.988311-17.02478 17.587692-6.747131 6.896057-13.455658 13.834732-20.390442 20.538223-1.364837 1.319336-3.6651 2.28154-5.563598 2.333893-8.810456.242874-17.632782.188995-26.447235.035217-1.663208-.029007-3.794495-.509018-4.890381-1.602325-12.577759-12.547959-24.997071-25.254746-38.41684-38.893128 9.197357 0 17.260925.457474 25.245728-.138916 6.887481-.514419 11.921692 1.57811 16.462066 6.713166 4.50055 5.089996 9.771027 9.499176 15.964478 15.410125 1.195373-1.776901 2.383941-3.54367 3.821594-5.559585z"/></svg>